# xmcd
#
# Track frame offsets: 
#        150
#        10505
#        20620
#        32742
#        44320
#        55520
#        66457
#        75807
#        88065
#        97497
#        109672
#        121525
#        133990
#        144300
#        154405
#        163645
#        174937
#        185650
#        197452
#        207627
#        217742
#        230570
#        241230
#
# Disc length: 3343 seconds
#
# Revision: 4
# Processed by: cddbd v1.5.1PL0 Copyright (c) Steve Scherf et al.
# Submitted via: ExactAudioCopy v0.95b3
#
DISCID=340d0d17
DTITLE=Loretta Lynn - Honky Tonk Girl (Disk 1)
DYEAR=1900
DGENRE=Country
TTITLE0=I'm A Honky Tonk Girl
TTITLE1=Whispering Sea
TTITLE2=Success
TTITLE3=Before I'm Over You
TTITLE4=The Other Women
TTITLE5=This Haunted House
TTITLE6=Wine, Women And Song
TTITLE7=Mister And Mrs Used To Be
TTITLE8=Happy Birthday
TTITLE9=Blue Kentucky Girl
TTITLE10=Our Hearts Are Holding Hands
TTITLE11=The Home You're Tearin' Down
TTITLE12=Dear Uncle Sam
TTITLE13=You Ain't Woman Enough
TTITLE14=A Man I Hardly Know
TTITLE15=Talking To The Wal
TTITLE16=These Boots Are Made For Walking
TTITLE17=The Darkest Day
TTITLE18=The Devil Gets His Due
TTITLE19=The Shoe Goes On The Other Foot Tonight
TTITLE20=Tomorrow Never Comes
TTITLE21=If Loneliness Can Kill Me
TTITLE22=Don't Come Home A' Drinkin'
EXTD=more info - MillenniumMusicProjectFormat - SYNTAX=\nSongTitle
EXTT0=
EXTT1=
EXTT2=
EXTT3=
EXTT4=
EXTT5=
EXTT6=
EXTT7=
EXTT8=
EXTT9=
EXTT10=
EXTT11=
EXTT12=
EXTT13=
EXTT14=
EXTT15=
EXTT16=
EXTT17=
EXTT18=
EXTT19=
EXTT20=
EXTT21=
EXTT22=
PLAYORDER=
